# xmcd
#
# Track frame offsets:
#	150
#	16156
#	32207
#	44628
#	59509
#	75350
#	93006
#	107962
#	120983
#	138099
#	153445
#	165739
#	184415
#	204291
#
# Disc length: 2987 seconds
#
# Revision: 2
# Processed by: cddbd v1.5.2PL0 Copyright (c) Steve Scherf et al.
# Submitted via: audiograbber 1.83.01
#
DISCID=ae0ba90e
DTITLE=The Blues Band - Itchy Feet
DYEAR=1982
DGENRE=Blues
TTITLE0=Talkin' Woman Blues
TTITLE1=Who's Right, Who's Wrong
TTITLE2=Rock 'n' Roll Radio
TTITLE3=Itchy Feet
TTITLE4=Ultimatum Time
TTITLE5=So Lonely
TTITLE6=Maggies Farm
TTITLE7=Come On
TTITLE8=Turn Around
TTITLE9=I Can't Be Satisfied
TTITLE10=Got To Love You Baby
TTITLE11=Nothin' But The Blues
TTITLE12=Let Your Bucket Down
TTITLE13=Back Door Man
EXTD=
EXTT0=
EXTT1=
EXTT2=
EXTT3=
EXTT4=
EXTT5=
EXTT6=
EXTT7=
EXTT8=
EXTT9=
EXTT10=
EXTT11=
EXTT12=
EXTT13=
PLAYORDER=
